<?xml version="1.0" encoding="utf-8"?>
<!-- Generator: Adobe Illustrator 24.2.3, SVG Export Plug-In . SVG Version: 6.00 Build 0)  -->
<svg version="1.1" id="Layer_1" xmlns="http://www.w3.org/2000/svg" xmlns:xlink="http://www.w3.org/1999/xlink" x="0px" y="0px"
	 viewBox="0 0 86 66" style="enable-background:new 0 0 86 66;" xml:space="preserve">
<style type="text/css">
	.st0{fill:#FFFFFF;}
</style>
<g>
	<path class="st0" d="M7.2,29.4h71.7c1.2,0,2.4-0.5,3.2-1.4c0.8-0.9,1.2-2.1,1-3.4C80.7,10.8,63.5,0.4,43,0.4
		C22.5,0.4,5.3,10.8,3,24.5c-0.2,1.2,0.2,2.4,1,3.4C4.7,28.9,5.9,29.4,7.2,29.4L7.2,29.4z M6.5,25.2C8.5,13,24.2,3.9,43,3.9
		c18.8,0,34.5,9.1,36.5,21.2c0,0.3-0.1,0.4-0.2,0.5c0,0-0.2,0.2-0.4,0.2H7.2c-0.3,0-0.4-0.1-0.4-0.2C6.6,25.6,6.5,25.4,6.5,25.2
		L6.5,25.2z M79.6,49.4c0.7-0.9,1.2-2,1.2-3.2v-2.1c0-2.9-2.3-5.3-5.3-5.3H10.3c-3,0-5.3,2.3-5.3,5.3v2.1c0,1.2,0.4,2.3,1.2,3.2
		c-2,1.5-3.3,3.9-3.3,6.6v1.4c0,4.5,3.6,8.1,7.9,8.1h64.3c4.4,0,7.9-3.7,7.9-8.1V56C83,53.3,81.6,50.9,79.6,49.4z M10.3,47.9
		c-0.9,0-1.7-0.8-1.7-1.7c0,0,0,0,0,0v-2.1c0-1,0.8-1.7,1.7-1.7h65.2c1,0,1.7,0.8,1.7,1.7v2.1c0,1-0.8,1.7-1.7,1.7h-0.4H44.6
		c-2.8,0-5,2.2-5,5c0,0,0,0,0,0V57c0,0.4-0.4,0.8-0.8,0.8c0,0,0,0,0,0c-0.4,0-0.8-0.4-0.8-0.8c0,0,0,0,0,0v-4.1c0-2.8-2.2-5-5-5
		c0,0,0,0,0,0h-1.2c-2.4,0-4.4,2-4.4,4.4v1c0,1.3-1.2,2.5-2.5,2.5s-2.5-1.2-2.5-2.5v-1c0-2.4-2-4.4-4.4-4.4h-7.2
		C10.8,47.9,10.3,47.9,10.3,47.9z M79.4,57.4c0,2.5-2,4.5-4.3,4.5H10.8c-2.4,0-4.3-2-4.3-4.5V56c0-2.5,1.9-4.5,4.3-4.5h7.2
		c0.4,0,0.8,0.4,0.8,0.8v1c0,3.3,2.7,6.1,6.1,6.1c3.4,0,6.1-2.7,6.1-6.1v-1c0-0.4,0.4-0.8,0.8-0.8h1.2c0.8,0,1.4,0.6,1.4,1.4V57
		c0,2.4,2,4.4,4.4,4.4s4.4-2,4.4-4.4v-4.1c0-0.8,0.6-1.4,1.4-1.4h30.5c2.3,0,4.3,2.1,4.3,4.5L79.4,57.4L79.4,57.4z M84.8,31.6
		C83.8,30.5,82.4,30,81,30c-1.4,0-2.9,0.5-3.9,1.6l-2.6,2.6c-0.7,0.7-2,0.7-2.7,0l-2.7-2.7c-1.1-1.1-2.4-1.6-3.9-1.6
		c-1.4,0-2.9,0.5-3.9,1.6L58.9,34c-0.7,0.7-2,0.7-2.7,0l-2.5-2.4c-2.2-2.1-5.6-2.1-7.7,0l-2.6,2.6c-0.7,0.7-2,0.7-2.7,0l-2.6-2.6
		c-2.2-2.1-5.6-2.1-7.7,0l-2.3,2.3c-0.7,0.7-2,0.7-2.7,0l-2-2c-1.1-1.1-2.4-1.6-3.9-1.6c-1.4,0-2.9,0.5-3.9,1.6l-2,2
		c-0.7,0.7-2,0.7-2.7,0l-2.1-2c-2.2-2.1-5.6-2.1-7.7,0c-0.7,0.7-0.7,1.8,0,2.5c0.7,0.7,1.8,0.7,2.5,0c0.7-0.7,2-0.7,2.7,0l2.1,2.1
		c1.1,1.1,2.4,1.6,3.9,1.6s2.9-0.5,3.9-1.6l2-2c0.7-0.7,2-0.7,2.7,0l2,2c1.1,1.1,2.4,1.6,3.9,1.6s2.9-0.5,3.9-1.6l2.3-2.3
		c0.7-0.7,2-0.7,2.7,0l2.6,2.6c1.1,1.1,2.4,1.6,3.9,1.6c1.4,0,2.9-0.5,3.9-1.6l2.6-2.6c0.7-0.7,2-0.7,2.7,0l2.5,2.5
		c1.1,1.1,2.4,1.6,3.9,1.6s2.9-0.5,3.9-1.6l2.5-2.5c0.7-0.7,2-0.7,2.7,0l2.7,2.7c1,1,2.4,1.6,3.9,1.6c1.4,0,2.8-0.5,3.9-1.6l2.6-2.6
		c0.7-0.7,2-0.7,2.7,0c0.7,0.7,1.8,0.7,2.5,0C85.5,33.5,85.5,32.3,84.8,31.6z"/>
	<path class="st0" d="M17.4,19.4c0.5,0,1.1-0.3,1.3-0.6l1.3-1.5c0.6-0.8,0.5-1.9-0.3-2.5c-0.8-0.6-1.9-0.5-2.5,0.3l-1.3,1.5
		c-0.6,0.8-0.5,1.9,0.3,2.5C16.6,19.4,16.9,19.4,17.4,19.4L17.4,19.4z M26.8,22.1c0.4,0.4,0.9,0.6,1.3,0.6s0.8-0.2,1.2-0.4
		c0.7-0.6,0.9-1.8,0.3-2.5l-0.9-1.1c-0.6-0.7-1.8-0.9-2.5-0.3c-0.7,0.6-0.9,1.8-0.3,2.5C25.9,21,26.8,22.1,26.8,22.1z M28.8,12.5
		c0.4,0.5,0.9,0.9,1.5,0.9c0.3,0,0.6-0.1,0.9-0.3c0.9-0.5,1.2-1.6,0.6-2.4l-0.9-1.6c-0.5-0.9-1.6-1.2-2.4-0.6
		c-0.9,0.5-1.2,1.6-0.6,2.4C27.9,10.9,28.8,12.5,28.8,12.5z M38.9,20.2c0.4,0.4,0.9,0.7,1.4,0.7c0.4,0,0.7-0.1,1.1-0.4
		c0.8-0.6,1-1.7,0.4-2.5l-1.1-1.4c-0.6-0.8-1.7-1-2.5-0.4c-0.8,0.6-1,1.7-0.4,2.5L38.9,20.2L38.9,20.2z M40.2,11.4
		c0.2,0.1,0.4,0.1,0.6,0.1c0.7,0,1.4-0.4,1.7-1.2l0.7-1.8c0.4-0.9-0.1-2-1.1-2.3c-0.9-0.4-2,0.1-2.3,1.1l-0.7,1.8
		C38.9,10.1,39.3,11.1,40.2,11.4L40.2,11.4z M50.4,23.7c0.4,0,0.6-0.1,1-0.3l1.5-1c0.8-0.5,1.1-1.6,0.5-2.5
		c-0.5-0.8-1.6-1.1-2.5-0.5l-1.5,1c-0.8,0.5-1.1,1.6-0.5,2.5C49.3,23.4,49.9,23.7,50.4,23.7z M50.9,12.7c0.3,0.1,0.4,0.2,0.7,0.2
		c0.7,0,1.3-0.4,1.6-1.1l0.9-1.9c0.4-0.9,0-2-0.9-2.3c-0.9-0.4-2,0-2.3,0.9L50,10.3C49.5,11.1,50,12.2,50.9,12.7z M60.1,17.9
		c0.4,0.4,0.9,0.7,1.4,0.7c0.4,0,0.7-0.1,1.1-0.4c0.8-0.6,1-1.7,0.4-2.5l-1.1-1.4c-0.6-0.8-1.7-1-2.5-0.4s-1,1.7-0.4,2.5L60.1,17.9z
		 M70.1,21.9c0.2,0.1,0.4,0.1,0.5,0.1c0.8,0,1.5-0.5,1.7-1.2l0.7-2.4c0.3-1-0.3-2-1.3-2.2c-1-0.3-2,0.3-2.2,1.2l-0.7,2.4
		C68.5,20.7,69.1,21.7,70.1,21.9z"/>
</g>
</svg>
