<?xml version="1.0" encoding="utf-8"?>
<!-- Generator: Adobe Illustrator 24.2.3, SVG Export Plug-In . SVG Version: 6.00 Build 0)  -->
<svg version="1.1" id="Layer_1" xmlns="http://www.w3.org/2000/svg" xmlns:xlink="http://www.w3.org/1999/xlink" x="0px" y="0px"
	 viewBox="0 0 20 20" style="enable-background:new 0 0 20 20;" xml:space="preserve">
<style type="text/css">
	.st0{fill:#FFFFFF;}
</style>
<path class="st0" d="M12.9,14.3C11.5,15.4,9.8,16,8,16c-4.4,0-8-3.6-8-8s3.6-8,8-8s8,3.6,8,8c0,1.8-0.6,3.5-1.7,4.9l0,0l5.3,5.3
	l-1.4,1.4L12.9,14.3L12.9,14.3z M8,14c3.3,0,6-2.7,6-6s-2.7-6-6-6S2,4.7,2,8S4.7,14,8,14z"/>
</svg>
